<svg xmlns="http://www.w3.org/2000/svg" xmlns:xlink="http://www.w3.org/1999/xlink" viewBox="0 0 978.37 327.89"><defs><style>.cls-1{isolation:isolate;}.cls-2,.cls-3,.cls-4,.cls-5,.cls-7{mix-blend-mode:screen;}.cls-2{fill:url(#radial-gradient);}.cls-3{fill:url(#radial-gradient-2);}.cls-4{fill:url(#radial-gradient-3);}.cls-5{fill:url(#radial-gradient-4);}.cls-10,.cls-11,.cls-12,.cls-13,.cls-6,.cls-8,.cls-9{opacity:0.5;}.cls-6{fill:url(#radial-gradient-5);}.cls-7{fill:url(#radial-gradient-6);}.cls-8{fill:url(#radial-gradient-7);}.cls-9{fill:url(#radial-gradient-8);}.cls-10{fill:url(#radial-gradient-9);}.cls-11{fill:url(#radial-gradient-10);}.cls-12{fill:url(#radial-gradient-11);}.cls-13{fill:url(#radial-gradient-12);}.cls-14,.cls-15,.cls-16,.cls-17,.cls-18,.cls-19,.cls-20,.cls-21,.cls-22,.cls-23,.cls-24,.cls-25,.cls-26,.cls-27,.cls-28,.cls-29,.cls-30{opacity:0.25;}.cls-14{fill:url(#radial-gradient-13);}.cls-15{fill:url(#radial-gradient-14);}.cls-16{fill:url(#radial-gradient-15);}.cls-17{fill:url(#radial-gradient-16);}.cls-18{fill:url(#radial-gradient-17);}.cls-19{fill:url(#radial-gradient-18);}.cls-20{fill:url(#radial-gradient-19);}.cls-21{fill:url(#radial-gradient-20);}.cls-22{fill:url(#radial-gradient-21);}.cls-23{fill:url(#radial-gradient-22);}.cls-24{fill:url(#radial-gradient-23);}.cls-25{fill:url(#radial-gradient-24);}.cls-26{fill:url(#radial-gradient-25);}.cls-27{fill:url(#radial-gradient-26);}.cls-28{fill:url(#radial-gradient-27);}.cls-29{fill:url(#radial-gradient-28);}.cls-30{fill:url(#radial-gradient-29);}</style><radialGradient id="radial-gradient" cx="522.84" cy="44.67" r="449.69" gradientTransform="translate(-104.93 -58.75) scale(1.12 1.26)" gradientUnits="userSpaceOnUse"><stop offset="0" stop-color="#4a289c" stop-opacity="0"/><stop offset="0.96" stop-color="#00092b"/></radialGradient><radialGradient id="radial-gradient-2" cx="523.56" cy="61.79" r="391.58" xlink:href="#radial-gradient"/><radialGradient id="radial-gradient-3" cx="513.57" cy="36.45" r="348.15" gradientTransform="translate(-104.93 -41.69) scale(1.12 1.18)" gradientUnits="userSpaceOnUse"><stop offset="0" stop-color="#4a289c"/><stop offset="0.96" stop-color="#00092b"/></radialGradient><radialGradient id="radial-gradient-4" cx="483.89" cy="27.51" r="252.18" gradientTransform="matrix(1, 0, 0, 1, 0, 0)" xlink:href="#radial-gradient-3"/><radialGradient id="radial-gradient-5" cx="539.63" cy="89.31" r="193.42" gradientTransform="matrix(1.11, 0.18, -0.17, 1.2, -81, -156.83)" xlink:href="#radial-gradient-3"/><radialGradient id="radial-gradient-6" cx="553.08" cy="133.82" r="145.04" gradientTransform="translate(-104.93 -49.46) scale(1.12 1.21)" xlink:href="#radial-gradient-3"/><radialGradient id="radial-gradient-7" cx="602.39" cy="40.9" r="179.18" gradientTransform="translate(-104.93 -49.46) scale(1.12 1.21)" xlink:href="#radial-gradient-3"/><radialGradient id="radial-gradient-8" cx="602.39" cy="40.9" r="179.18" gradientTransform="translate(-104.93 -49.46) scale(1.12 1.21)" xlink:href="#radial-gradient-3"/><radialGradient id="radial-gradient-9" cx="602.39" cy="40.9" r="179.18" gradientTransform="translate(-104.93 -49.46) scale(1.12 1.21)" xlink:href="#radial-gradient-3"/><radialGradient id="radial-gradient-10" cx="602.39" cy="40.9" r="179.18" gradientTransform="translate(-104.93 -49.46) scale(1.12 1.21)" xlink:href="#radial-gradient-3"/><radialGradient id="radial-gradient-11" cx="602.39" cy="40.9" r="179.18" gradientTransform="translate(-104.93 -49.46) scale(1.12 1.21)" xlink:href="#radial-gradient-3"/><radialGradient id="radial-gradient-12" cx="602.39" cy="40.9" r="179.18" gradientTransform="translate(-104.93 -49.46) scale(1.12 1.21)" xlink:href="#radial-gradient-3"/><radialGradient id="radial-gradient-13" cx="366.42" cy="127.57" r="54.67" gradientTransform="matrix(1.06, 0.37, -0.4, 1.15, -18.71, -176.18)" xlink:href="#radial-gradient-3"/><radialGradient id="radial-gradient-14" cx="626.23" cy="48.75" r="54.67" gradientTransform="matrix(-0.36, 1.08, -1.16, -0.31, 914.41, -582.91)" xlink:href="#radial-gradient-3"/><radialGradient id="radial-gradient-15" cx="774.4" cy="-6.12" r="54.67" gradientTransform="matrix(0.74, 0.91, -0.85, 0.8, 208.62, -593.31)" xlink:href="#radial-gradient-3"/><radialGradient id="radial-gradient-16" cx="652.34" cy="59.19" r="23.21" gradientTransform="matrix(1.02, 0.52, -0.48, 1.1, -6.27, -337.21)" xlink:href="#radial-gradient-3"/><radialGradient id="radial-gradient-17" cx="695.39" cy="82.1" r="23.21" gradientTransform="matrix(1.02, 0.52, -0.48, 1.1, -6.27, -337.21)" xlink:href="#radial-gradient-3"/><radialGradient id="radial-gradient-18" cx="709.9" cy="46.55" r="23.21" gradientTransform="matrix(1.02, 0.52, -0.48, 1.1, -6.27, -337.21)" xlink:href="#radial-gradient-3"/><radialGradient id="radial-gradient-19" cx="747.93" cy="50.41" r="23.21" gradientTransform="matrix(0.87, 0.77, -0.71, 0.94, 107.34, -489.74)" xlink:href="#radial-gradient-3"/><radialGradient id="radial-gradient-20" cx="725.14" cy="29.58" r="37.24" gradientTransform="matrix(0.95, 0.65, -0.61, 1.02, 45.65, -420.59)" xlink:href="#radial-gradient-3"/><radialGradient id="radial-gradient-21" cx="657.53" cy="94.15" r="37.24" gradientTransform="matrix(-0.36, 1.09, -1.16, -0.3, 975.43, -559.87)" xlink:href="#radial-gradient-3"/><radialGradient id="radial-gradient-22" cx="439.4" cy="105.21" r="33.55" gradientTransform="matrix(1.12, 0.07, -0.06, 1.21, -98.17, -79.96)" xlink:href="#radial-gradient-3"/><radialGradient id="radial-gradient-23" cx="436.7" cy="136.3" r="33.55" gradientTransform="matrix(1.12, 0.07, -0.06, 1.21, -98.17, -79.96)" xlink:href="#radial-gradient-3"/><radialGradient id="radial-gradient-24" cx="448.89" cy="134.34" r="20.9" gradientTransform="matrix(1.12, 0.07, -0.06, 1.21, -98.17, -79.96)" xlink:href="#radial-gradient-3"/><radialGradient id="radial-gradient-25" cx="420.76" cy="95.07" r="20.9" gradientTransform="matrix(1.12, 0.07, -0.06, 1.21, -98.17, -79.96)" xlink:href="#radial-gradient-3"/><radialGradient id="radial-gradient-26" cx="389.64" cy="137.52" r="20.9" gradientTransform="matrix(1.12, 0.07, -0.06, 1.21, -98.17, -79.96)" xlink:href="#radial-gradient-3"/><radialGradient id="radial-gradient-27" cx="468.43" cy="89.64" r="54.67" gradientTransform="translate(-27.46 -216.52) rotate(19.23) scale(1.12 1.21)" xlink:href="#radial-gradient-3"/><radialGradient id="radial-gradient-28" cx="489.46" cy="94.19" r="20.9" gradientTransform="matrix(1.12, 0.07, -0.06, 1.21, -98.17, -79.96)" xlink:href="#radial-gradient-3"/><radialGradient id="radial-gradient-29" cx="389.72" cy="104.67" r="20.9" gradientTransform="matrix(1.12, 0.07, -0.06, 1.21, -98.17, -79.96)" xlink:href="#radial-gradient-3"/></defs><g class="cls-1"><g id="Layer_2" data-name="Layer 2"><g id="Capa_1" data-name="Capa 1"><path class="cls-2" d="M978.37,211.66C885.6,85.53,705.7,0,499,0,276.56,0,85.22,99,0,241v86.89H978.37Z"/><path class="cls-3" d="M915.16,205.5C834.38,95.67,677.72,21.19,497.7,21.19,304,21.19,137.42,107.37,63.21,231v75.67h852Z"/><path class="cls-4" d="M867.92,207.54C796.1,116,656.81,54,496.75,54c-172.18,0-320.32,71.81-386.3,174.86v63H867.92Z"/><path class="cls-5" d="M232.28,130.31c-3.55,38.25,107.46,43,234.13,31.34s215.63,31.87,274-.53c23.11-12.83,22-30.83,9.84-48.28C679.6,75.87,591.84,54,496.75,54c-98.52,0-189.16,23.52-261,62.94A46.88,46.88,0,0,0,232.28,130.31Z"/><path class="cls-6" d="M667.66,110.76c-1.16,8.43-18.34,12.65-38.37,9.44S594,107.55,595.11,99.13s18.35-12.65,38.38-9.44S668.83,102.34,667.66,110.76ZM297.82,99.38c-18.91,7.82-32,20.6-29.13,28.55s20.44,8.07,39.36.26,32-20.6,29.13-28.55S316.74,91.57,297.82,99.38Zm64,13.76c-13.63,5.25-23.13,14.15-21.24,19.88s14.49,6.12,28.11.87,23.14-14.16,21.24-19.89S375.43,107.89,361.81,113.14Zm30.61-41.76c-10.3,3.5-17.63,9.84-16.37,14.17s10.64,5,20.94,1.52,17.63-9.85,16.37-14.18S402.72,67.88,392.42,71.38ZM723,120.93c-9.87-4.72-19.26-5.18-21-1S707,131.25,716.87,136s19.26,5.18,21,1S732.92,125.65,723,120.93Zm-46.92,17.83c-12.19-1.52-22.51,1.41-23.06,6.53s8.89,10.51,21.07,12,22.51-1.4,23.06-6.53S688.31,140.28,676.12,138.76Z"/><path class="cls-7" d="M313.86,127.62c-8.66,3.57-17,5.48-23.86,5.75a80,80,0,0,0,18.05-5.18c18.91-7.82,32-20.6,29.13-28.55-1.53-4.32-7.42-6.32-15.5-6,11-1.67,19.44.14,21.31,5.44C345.82,107,332.77,119.8,313.86,127.62Zm64.95-18.16c5.84-.11,10.07,1.41,11.11,4.54,1.9,5.73-7.61,14.64-21.24,19.89A58.27,58.27,0,0,1,357.49,137a51.55,51.55,0,0,0,17-3.68c13.63-5.25,23.14-14.16,21.24-19.89C394.37,109.34,387.55,108,378.81,109.46ZM633.49,89.69c20,3.21,35.34,12.65,34.17,21.07-.68,5-6.93,8.47-16,9.86,12.2-.61,21-4.47,21.86-10.43,1.16-8.42-14.13-17.86-34.17-21.07A74.14,74.14,0,0,0,617,88.7,80.16,80.16,0,0,1,633.49,89.69Zm95.36,30.67c-7.52-3.6-14.75-4.71-18.53-3.2A38.42,38.42,0,0,1,723,120.93c9.88,4.72,16.5,11.91,14.79,16.06a4.1,4.1,0,0,1-2.43,2.18c4.21.36,7.33-.53,8.24-2.75C745.35,132.27,738.73,125.08,728.85,120.36Zm-46.92,17.83a44.93,44.93,0,0,0-13.31.2,51.28,51.28,0,0,1,7.5.37c12.19,1.52,21.62,6.91,21.07,12-.33,3.06-4.14,5.32-9.75,6.34,8.66-.23,15.13-2.88,15.56-6.91C703.55,145.1,694.12,139.71,681.93,138.19Zm-277.31-69c4.66,0,8,1.27,8.74,3.74,1.26,4.33-6.07,10.68-16.37,14.18a45.37,45.37,0,0,1-6.39,1.66,39.14,39.14,0,0,0,12.2-2.23c10.3-3.5,17.63-9.85,16.37-14.18C418.17,68.91,412.15,67.78,404.62,69.15Z"/><path class="cls-8" d="M692.83,155.52a43.26,43.26,0,0,0-14.68-4.33c-7.59-.94-14.47-.16-18.7,1.8a43.17,43.17,0,0,0,14.68,4.33C681.73,158.27,688.6,157.49,692.83,155.52Z"/><path class="cls-9" d="M665.75,114.66c-5.68-5.51-16.9-10.4-30.22-12.54-16.65-2.67-31.32-.2-36.47,5.54,5.69,5.51,16.91,10.4,30.23,12.54C645.93,122.87,660.6,120.4,665.75,114.66Z"/><path class="cls-10" d="M707.38,129.89a43.18,43.18,0,0,0,9.49,6.07c7,3.35,13.75,4.54,17.69,3.48a42.88,42.88,0,0,0-9.48-6.08C718.07,130,711.33,128.82,707.38,129.89Z"/><path class="cls-11" d="M272.34,131.92c6.69,3.66,20.79,2.43,35.71-3.73,13.09-5.41,23.36-13.19,27.51-20.11-6.68-3.66-20.79-2.43-35.7,3.73C286.77,117.22,276.5,125,272.34,131.92Z"/><path class="cls-12" d="M394.45,83.81a41,41,0,0,0-10.83,5.45A37.4,37.4,0,0,0,397,87.07a41.1,41.1,0,0,0,10.84-5.46A37.48,37.48,0,0,0,394.45,83.81Z"/><path class="cls-13" d="M345.81,137c5.31,1.38,13.85.39,22.87-3.09,7.85-3,14.32-7.26,18-11.41-5.31-1.38-13.85-.39-22.88,3.09C356,128.6,349.53,132.83,345.81,137Z"/><ellipse class="cls-14" cx="312.23" cy="141.66" rx="14.6" ry="5.97" transform="translate(-29.23 110.73) rotate(-19.23)"/><ellipse class="cls-15" cx="597.17" cy="76.16" rx="6" ry="14.51" transform="translate(431.48 654.91) rotate(-81.29)"/><path class="cls-16" d="M777.54,145c-1.6,2.83-8.44,1.49-15.27-3s-11.07-10.43-9.47-13.26,8.44-1.49,15.28,3S779.15,142.19,777.54,145Z"/><path class="cls-17" d="M630.4,81.75c-.18,1.39-3,2.12-6.42,1.62s-5.94-2-5.77-3.44,3-2.12,6.42-1.62S630.58,80.35,630.4,81.75Z"/><path class="cls-18" d="M663.15,129.19c-.18,1.4-3,2.12-6.41,1.62s-6-2-5.77-3.43,3-2.12,6.41-1.62S663.33,127.79,663.15,129.19Z"/><path class="cls-19" d="M695,97.72c-.18,1.4-3,2.12-6.42,1.62s-6-2-5.77-3.43,3.05-2.12,6.42-1.62S695.17,96.32,695,97.72Z"/><path class="cls-20" d="M721.79,146.79c-.49,1.31-3.44,1.27-6.59-.09s-5.32-3.51-4.84-4.82,3.44-1.27,6.59.08S722.27,145.48,721.79,146.79Z"/><path class="cls-21" d="M714.77,109.14c-.55,2.18-5.26,2.71-10.52,1.17s-9.08-4.55-8.53-6.73,5.25-2.71,10.51-1.17S715.32,107,714.77,109.14Z"/><ellipse class="cls-22" cx="606.67" cy="122.17" rx="4.09" ry="9.89" transform="translate(379.9 697.98) rotate(-79.89)"/><path class="cls-23" d="M399.52,96.13c.47,2-3,4.64-7.76,6s-9,.78-9.46-1.19,3-4.64,7.76-6S399.05,94.16,399.52,96.13Z"/><path class="cls-24" d="M394.62,133.6c.47,2-3,4.64-7.76,6s-9,.78-9.46-1.19,3-4.64,7.76-6S394.15,131.63,394.62,133.6Z"/><path class="cls-25" d="M404.4,124.45c.29,1.23-1.87,2.89-4.83,3.71s-5.61.49-5.9-.74,1.88-2.89,4.84-3.71S404.11,123.22,404.4,124.45Z"/><path class="cls-26" d="M375.18,75.06c.3,1.23-1.87,2.89-4.83,3.7s-5.6.49-5.89-.74,1.87-2.89,4.83-3.71S374.89,73.83,375.18,75.06Z"/><path class="cls-27" d="M337.68,124.45c.29,1.23-1.87,2.89-4.83,3.71s-5.61.49-5.9-.74,1.87-2.89,4.84-3.71S337.39,123.22,337.68,124.45Z"/><ellipse class="cls-28" cx="426.93" cy="95.66" rx="14.6" ry="5.97" transform="translate(-7.69 145.94) rotate(-19.23)"/><path class="cls-29" d="M452.38,78.45c.29,1.23-1.88,2.89-4.84,3.71s-5.6.49-5.89-.74,1.87-2.89,4.83-3.71S452.08,77.22,452.38,78.45Z"/><path class="cls-30" d="M339.75,84.67c.29,1.23-1.87,2.89-4.83,3.71s-5.6.48-5.9-.75,1.88-2.89,4.84-3.71S339.46,83.44,339.75,84.67Z"/></g></g></g></svg>