<svg xmlns="http://www.w3.org/2000/svg" xmlns:xlink="http://www.w3.org/1999/xlink" viewBox="0 0 880.09 283.26"><defs><style>.cls-1{isolation:isolate;}.cls-10,.cls-100,.cls-101,.cls-102,.cls-103,.cls-104,.cls-105,.cls-106,.cls-107,.cls-108,.cls-109,.cls-11,.cls-110,.cls-111,.cls-112,.cls-113,.cls-114,.cls-115,.cls-116,.cls-117,.cls-118,.cls-119,.cls-12,.cls-120,.cls-121,.cls-122,.cls-123,.cls-124,.cls-125,.cls-126,.cls-127,.cls-128,.cls-129,.cls-13,.cls-130,.cls-131,.cls-132,.cls-133,.cls-134,.cls-135,.cls-136,.cls-137,.cls-138,.cls-139,.cls-14,.cls-140,.cls-141,.cls-15,.cls-16,.cls-17,.cls-18,.cls-19,.cls-2,.cls-20,.cls-21,.cls-22,.cls-23,.cls-24,.cls-25,.cls-26,.cls-27,.cls-28,.cls-29,.cls-3,.cls-30,.cls-31,.cls-32,.cls-33,.cls-34,.cls-35,.cls-36,.cls-37,.cls-38,.cls-39,.cls-4,.cls-40,.cls-41,.cls-42,.cls-43,.cls-44,.cls-45,.cls-46,.cls-47,.cls-48,.cls-49,.cls-5,.cls-50,.cls-51,.cls-52,.cls-53,.cls-54,.cls-55,.cls-56,.cls-57,.cls-58,.cls-59,.cls-6,.cls-60,.cls-61,.cls-62,.cls-63,.cls-64,.cls-65,.cls-66,.cls-67,.cls-68,.cls-69,.cls-7,.cls-70,.cls-71,.cls-72,.cls-73,.cls-74,.cls-75,.cls-76,.cls-77,.cls-78,.cls-79,.cls-8,.cls-80,.cls-81,.cls-82,.cls-83,.cls-84,.cls-85,.cls-86,.cls-87,.cls-88,.cls-89,.cls-9,.cls-90,.cls-91,.cls-92,.cls-93,.cls-94,.cls-95,.cls-96,.cls-97,.cls-98,.cls-99{mix-blend-mode:screen;}.cls-2{fill:url(#radial-gradient);}.cls-3{fill:url(#radial-gradient-2);}.cls-4{fill:url(#radial-gradient-3);}.cls-5{fill:url(#radial-gradient-4);}.cls-6{fill:url(#radial-gradient-5);}.cls-7{fill:url(#radial-gradient-6);}.cls-8{fill:url(#radial-gradient-7);}.cls-9{fill:url(#radial-gradient-8);}.cls-10{fill:url(#radial-gradient-9);}.cls-11{fill:url(#radial-gradient-10);}.cls-12{fill:url(#radial-gradient-11);}.cls-13{fill:url(#radial-gradient-12);}.cls-14{fill:url(#radial-gradient-13);}.cls-15{fill:url(#radial-gradient-14);}.cls-16{fill:url(#radial-gradient-15);}.cls-17{fill:url(#radial-gradient-16);}.cls-18{fill:url(#radial-gradient-17);}.cls-19{fill:url(#radial-gradient-18);}.cls-20{fill:url(#radial-gradient-19);}.cls-21{fill:url(#radial-gradient-20);}.cls-22{fill:url(#radial-gradient-21);}.cls-23{fill:url(#radial-gradient-22);}.cls-24{fill:url(#radial-gradient-23);}.cls-25{fill:url(#radial-gradient-24);}.cls-26{fill:url(#radial-gradient-25);}.cls-27{fill:url(#radial-gradient-26);}.cls-28{fill:url(#radial-gradient-27);}.cls-29{fill:url(#radial-gradient-28);}.cls-30{fill:url(#radial-gradient-29);}.cls-31{fill:url(#radial-gradient-30);}.cls-32{fill:url(#radial-gradient-31);}.cls-33{fill:url(#radial-gradient-32);}.cls-34{fill:url(#radial-gradient-33);}.cls-35{fill:url(#radial-gradient-34);}.cls-36{fill:url(#radial-gradient-35);}.cls-37{fill:url(#radial-gradient-36);}.cls-38{fill:url(#radial-gradient-37);}.cls-39{fill:url(#radial-gradient-38);}.cls-40{fill:url(#radial-gradient-39);}.cls-41{fill:url(#radial-gradient-40);}.cls-42{fill:url(#radial-gradient-41);}.cls-43{fill:url(#radial-gradient-42);}.cls-44{fill:url(#radial-gradient-43);}.cls-45{fill:url(#radial-gradient-44);}.cls-46{fill:url(#radial-gradient-45);}.cls-47{fill:url(#radial-gradient-46);}.cls-48{fill:url(#radial-gradient-47);}.cls-49{fill:url(#radial-gradient-48);}.cls-50{fill:url(#radial-gradient-49);}.cls-51{fill:url(#radial-gradient-50);}.cls-52{fill:url(#radial-gradient-51);}.cls-53{fill:url(#radial-gradient-52);}.cls-54{fill:url(#radial-gradient-53);}.cls-55{fill:url(#radial-gradient-54);}.cls-56{fill:url(#radial-gradient-55);}.cls-57{fill:url(#radial-gradient-56);}.cls-58{fill:url(#radial-gradient-57);}.cls-59{fill:url(#radial-gradient-58);}.cls-60{fill:url(#radial-gradient-59);}.cls-61{fill:url(#radial-gradient-60);}.cls-62{fill:url(#radial-gradient-61);}.cls-63{fill:url(#radial-gradient-62);}.cls-64{fill:url(#radial-gradient-63);}.cls-65{fill:url(#radial-gradient-64);}.cls-66{fill:url(#radial-gradient-65);}.cls-67{fill:url(#radial-gradient-66);}.cls-68{fill:url(#radial-gradient-67);}.cls-69{fill:url(#radial-gradient-68);}.cls-70{fill:url(#radial-gradient-69);}.cls-71{fill:url(#radial-gradient-70);}.cls-72{fill:url(#radial-gradient-71);}.cls-73{fill:url(#radial-gradient-72);}.cls-74{fill:url(#radial-gradient-73);}.cls-75{fill:url(#radial-gradient-74);}.cls-76{fill:url(#radial-gradient-75);}.cls-77{fill:url(#radial-gradient-76);}.cls-78{fill:url(#radial-gradient-77);}.cls-79{fill:url(#radial-gradient-78);}.cls-80{fill:url(#radial-gradient-79);}.cls-81{fill:url(#radial-gradient-80);}.cls-82{fill:url(#radial-gradient-81);}.cls-83{fill:url(#radial-gradient-82);}.cls-84{fill:url(#radial-gradient-83);}.cls-85{fill:url(#radial-gradient-84);}.cls-86{fill:url(#radial-gradient-85);}.cls-87{fill:url(#radial-gradient-86);}.cls-88{fill:url(#radial-gradient-87);}.cls-89{fill:url(#radial-gradient-88);}.cls-90{fill:url(#radial-gradient-89);}.cls-91{fill:url(#radial-gradient-90);}.cls-92{fill:url(#radial-gradient-91);}.cls-93{fill:url(#radial-gradient-92);}.cls-94{fill:url(#radial-gradient-93);}.cls-95{fill:url(#radial-gradient-94);}.cls-96{fill:url(#radial-gradient-95);}.cls-97{fill:url(#radial-gradient-96);}.cls-98{fill:url(#radial-gradient-97);}.cls-99{fill:url(#radial-gradient-98);}.cls-100{fill:url(#radial-gradient-99);}.cls-101{fill:url(#radial-gradient-100);}.cls-102{fill:url(#radial-gradient-101);}.cls-103{fill:url(#radial-gradient-102);}.cls-104{fill:url(#radial-gradient-103);}.cls-105{fill:url(#radial-gradient-104);}.cls-106{fill:url(#radial-gradient-105);}.cls-107{fill:url(#radial-gradient-106);}.cls-108{fill:url(#radial-gradient-107);}.cls-109{fill:url(#radial-gradient-108);}.cls-110{fill:url(#radial-gradient-109);}.cls-111{fill:url(#radial-gradient-110);}.cls-112{fill:url(#radial-gradient-111);}.cls-113{fill:url(#radial-gradient-112);}.cls-114{fill:url(#radial-gradient-113);}.cls-115{fill:url(#radial-gradient-114);}.cls-116{fill:url(#radial-gradient-115);}.cls-117{fill:url(#radial-gradient-116);}.cls-118{fill:url(#radial-gradient-117);}.cls-119{fill:url(#radial-gradient-118);}.cls-120{fill:url(#radial-gradient-119);}.cls-121{fill:url(#radial-gradient-120);}.cls-122{fill:url(#radial-gradient-121);}.cls-123{fill:url(#radial-gradient-122);}.cls-124{fill:url(#radial-gradient-123);}.cls-125{fill:url(#radial-gradient-124);}.cls-126{fill:url(#radial-gradient-125);}.cls-127{fill:url(#radial-gradient-126);}.cls-128{fill:url(#radial-gradient-127);}.cls-129{fill:url(#radial-gradient-128);}.cls-130{fill:url(#radial-gradient-129);}.cls-131{fill:url(#radial-gradient-130);}.cls-132{fill:url(#radial-gradient-131);}.cls-133{fill:url(#radial-gradient-132);}.cls-134{fill:url(#radial-gradient-133);}.cls-135{fill:url(#radial-gradient-134);}.cls-136{fill:url(#radial-gradient-135);}.cls-137{fill:url(#radial-gradient-136);}.cls-138{fill:url(#radial-gradient-137);}.cls-139{fill:url(#radial-gradient-138);}.cls-140{fill:url(#radial-gradient-139);}.cls-141{fill:url(#radial-gradient-140);}</style><radialGradient id="radial-gradient" cx="131.66" cy="-2.24" r="276.81" gradientUnits="userSpaceOnUse"><stop offset="0" stop-color="#f20074"/><stop offset="0.14" stop-color="#ed0376"/><stop offset="0.31" stop-color="#df0b7d"/><stop offset="0.49" stop-color="#c71887"/><stop offset="0.67" stop-color="#a62a96"/><stop offset="0.87" stop-color="#7b42a9"/><stop offset="0.9" stop-color="#7446ac"/></radialGradient><radialGradient id="radial-gradient-2" cx="135.3" cy="112.02" r="0.34" xlink:href="#radial-gradient"/><radialGradient id="radial-gradient-3" cx="135.14" cy="112.55" r="0.3" xlink:href="#radial-gradient"/><radialGradient id="radial-gradient-4" cx="135.51" cy="111.29" r="0.5" xlink:href="#radial-gradient"/><radialGradient id="radial-gradient-5" cx="139.75" cy="82.47" r="1.17" xlink:href="#radial-gradient"/><radialGradient id="radial-gradient-6" cx="134.8" cy="113.64" r="0.1" xlink:href="#radial-gradient"/><radialGradient id="radial-gradient-7" cx="135.72" cy="110.54" r="0.62" xlink:href="#radial-gradient"/><radialGradient id="radial-gradient-8" cx="134.99" cy="112.97" r="0.3" xlink:href="#radial-gradient"/><radialGradient id="radial-gradient-9" cx="134.87" cy="113.38" r="0.17" xlink:href="#radial-gradient"/><radialGradient id="radial-gradient-10" cx="136.21" cy="108.86" r="0.59" xlink:href="#radial-gradient"/><radialGradient id="radial-gradient-11" cx="137.88" cy="101.62" r="0.86" xlink:href="#radial-gradient"/><radialGradient id="radial-gradient-12" cx="137.32" cy="104.26" r="0.89" xlink:href="#radial-gradient"/><radialGradient id="radial-gradient-13" cx="135.96" cy="109.77" r="0.52" xlink:href="#radial-gradient"/><radialGradient id="radial-gradient-14" cx="137.59" cy="102.9" r="1.08" xlink:href="#radial-gradient"/><radialGradient id="radial-gradient-15" cx="142.88" cy="111.19" r="7.67" xlink:href="#radial-gradient"/><radialGradient id="radial-gradient-16" cx="136.48" cy="107.7" r="0.84" xlink:href="#radial-gradient"/><radialGradient id="radial-gradient-17" cx="136.75" cy="106.7" r="0.76" xlink:href="#radial-gradient"/><radialGradient id="radial-gradient-18" cx="137.03" cy="105.61" r="0.69" xlink:href="#radial-gradient"/><radialGradient id="radial-gradient-19" cx="192.85" cy="174.9" r="0.55" xlink:href="#radial-gradient"/><radialGradient id="radial-gradient-20" cx="191.95" cy="175.18" r="0.28" xlink:href="#radial-gradient"/><radialGradient id="radial-gradient-21" cx="194.31" cy="174.55" r="0.81" xlink:href="#radial-gradient"/><radialGradient id="radial-gradient-22" cx="191.6" cy="175.34" r="0.03" xlink:href="#radial-gradient"/><radialGradient id="radial-gradient-23" cx="262.47" cy="200.7" r="1.39" xlink:href="#radial-gradient"/><radialGradient id="radial-gradient-24" cx="221.52" cy="172.95" r="48.6" xlink:href="#radial-gradient"/><radialGradient id="radial-gradient-25" cx="263.65" cy="202.76" r="1.1" xlink:href="#radial-gradient"/><radialGradient id="radial-gradient-26" cx="196.25" cy="174.17" r="1.03" xlink:href="#radial-gradient"/><radialGradient id="radial-gradient-27" cx="191.61" cy="175.25" r="0.05" xlink:href="#radial-gradient"/><radialGradient id="radial-gradient-28" cx="134.76" cy="113.77" r="0.04" xlink:href="#radial-gradient"/><radialGradient id="radial-gradient-29" cx="191.73" cy="174.95" r="0.17" xlink:href="#radial-gradient"/><radialGradient id="radial-gradient-30" cx="192.04" cy="173.94" r="0.8" xlink:href="#radial-gradient"/><radialGradient id="radial-gradient-31" cx="163.81" cy="110.66" r="62.52" xlink:href="#radial-gradient"/><radialGradient id="radial-gradient-32" cx="201.49" cy="173.5" r="1.36" xlink:href="#radial-gradient"/><radialGradient id="radial-gradient-33" cx="198.66" cy="173.81" r="1.21" xlink:href="#radial-gradient"/><radialGradient id="radial-gradient-34" cx="207.31" cy="173.25" r="0.78" xlink:href="#radial-gradient"/><radialGradient id="radial-gradient-35" cx="204.68" cy="173.3" r="1.49" xlink:href="#radial-gradient"/><radialGradient id="radial-gradient-36" cx="139.67" cy="86.09" r="1.56" xlink:href="#radial-gradient"/><radialGradient id="radial-gradient-37" cx="60.51" cy="0.24" r="0.46" xlink:href="#radial-gradient"/><radialGradient id="radial-gradient-38" cx="61.66" cy="0.33" r="0.46" xlink:href="#radial-gradient"/><radialGradient id="radial-gradient-39" cx="57.49" cy="0.01" r="2.16" xlink:href="#radial-gradient"/><radialGradient id="radial-gradient-40" cx="54.66" cy="0" r="0.32" xlink:href="#radial-gradient"/><radialGradient id="radial-gradient-41" cx="138.14" cy="100.2" r="0.89" xlink:href="#radial-gradient"/><radialGradient id="radial-gradient-42" cx="69.38" cy="1.36" r="0.61" xlink:href="#radial-gradient"/><radialGradient id="radial-gradient-43" cx="62.86" cy="0.45" r="0.5" xlink:href="#radial-gradient"/><radialGradient id="radial-gradient-44" cx="66.05" cy="0.57" r="2.41" xlink:href="#radial-gradient"/><radialGradient id="radial-gradient-45" cx="49.72" cy="0.15" r="0.08" xlink:href="#radial-gradient"/><radialGradient id="radial-gradient-46" cx="70.81" cy="1.64" r="0.58" xlink:href="#radial-gradient"/><radialGradient id="radial-gradient-47" cx="49.5" cy="0.17" r="0.06" xlink:href="#radial-gradient"/><radialGradient id="radial-gradient-48" cx="50" cy="0.13" r="0.1" xlink:href="#radial-gradient"/><radialGradient id="radial-gradient-49" cx="53.14" cy="0" r="0.27" xlink:href="#radial-gradient"/><radialGradient id="radial-gradient-50" cx="49.36" cy="0.19" r="0.03" xlink:href="#radial-gradient"/><radialGradient id="radial-gradient-51" cx="52.45" cy="0.01" r="0.27" xlink:href="#radial-gradient"/><radialGradient id="radial-gradient-52" cx="50.36" cy="0.1" r="0.13" xlink:href="#radial-gradient"/><radialGradient id="radial-gradient-53" cx="51.35" cy="0.03" r="0.69" xlink:href="#radial-gradient"/><radialGradient id="radial-gradient-54" cx="53.87" cy="0" r="0.28" xlink:href="#radial-gradient"/><radialGradient id="radial-gradient-55" cx="139.27" cy="91.78" r="1.43" xlink:href="#radial-gradient"/><radialGradient id="radial-gradient-56" cx="139.09" cy="93.66" r="1.16" xlink:href="#radial-gradient"/><radialGradient id="radial-gradient-57" cx="139.44" cy="90.12" r="1.13" xlink:href="#radial-gradient"/><radialGradient id="radial-gradient-58" cx="139.56" cy="88.33" r="1.11" xlink:href="#radial-gradient"/><radialGradient id="radial-gradient-59" cx="139.72" cy="84.32" r="1.52" xlink:href="#radial-gradient"/><radialGradient id="radial-gradient-60" cx="72.25" cy="1.93" r="0.59" xlink:href="#radial-gradient"/><radialGradient id="radial-gradient-61" cx="138.65" cy="96.98" r="1.17" xlink:href="#radial-gradient"/><radialGradient id="radial-gradient-62" cx="138.88" cy="95.44" r="0.97" xlink:href="#radial-gradient"/><radialGradient id="radial-gradient-63" cx="138.41" cy="98.43" r="1.25" xlink:href="#radial-gradient"/><radialGradient id="radial-gradient-64" cx="139.73" cy="80.41" r="1.31" xlink:href="#radial-gradient"/><radialGradient id="radial-gradient-65" cx="73.73" cy="2.25" r="0.64" xlink:href="#radial-gradient"/><radialGradient id="radial-gradient-66" cx="139.14" cy="71.66" r="1.74" xlink:href="#radial-gradient"/><radialGradient id="radial-gradient-67" cx="106.37" cy="1.8" r="94.22" xlink:href="#radial-gradient"/><radialGradient id="radial-gradient-68" cx="139.66" cy="78.13" r="1.67" xlink:href="#radial-gradient"/><radialGradient id="radial-gradient-69" cx="139.38" cy="74.19" r="1.25" xlink:href="#radial-gradient"/><radialGradient id="radial-gradient-70" cx="139.54" cy="76.22" r="1.33" xlink:href="#radial-gradient"/><radialGradient id="radial-gradient-71" cx="576.5" cy="-2.24" r="276.81" gradientTransform="matrix(-1, 0, 0, 1, 1324.93, 0)" xlink:href="#radial-gradient"/><radialGradient id="radial-gradient-72" cx="580.14" cy="112.02" r="0.34" gradientTransform="matrix(-1, 0, 0, 1, 1324.93, 0)" xlink:href="#radial-gradient"/><radialGradient id="radial-gradient-73" cx="579.97" cy="112.55" r="0.3" gradientTransform="matrix(-1, 0, 0, 1, 1324.93, 0)" xlink:href="#radial-gradient"/><radialGradient id="radial-gradient-74" cx="580.35" cy="111.29" r="0.5" gradientTransform="matrix(-1, 0, 0, 1, 1324.93, 0)" xlink:href="#radial-gradient"/><radialGradient id="radial-gradient-75" cx="584.59" cy="82.47" r="1.17" gradientTransform="matrix(-1, 0, 0, 1, 1324.93, 0)" xlink:href="#radial-gradient"/><radialGradient id="radial-gradient-76" cx="579.63" cy="113.64" r="0.1" gradientTransform="matrix(-1, 0, 0, 1, 1324.93, 0)" xlink:href="#radial-gradient"/><radialGradient id="radial-gradient-77" cx="580.55" cy="110.54" r="0.62" gradientTransform="matrix(-1, 0, 0, 1, 1324.93, 0)" xlink:href="#radial-gradient"/><radialGradient id="radial-gradient-78" cx="579.83" cy="112.97" r="0.3" gradientTransform="matrix(-1, 0, 0, 1, 1324.93, 0)" xlink:href="#radial-gradient"/><radialGradient id="radial-gradient-79" cx="579.71" cy="113.38" r="0.17" gradientTransform="matrix(-1, 0, 0, 1, 1324.93, 0)" xlink:href="#radial-gradient"/><radialGradient id="radial-gradient-80" cx="581.05" cy="108.86" r="0.59" gradientTransform="matrix(-1, 0, 0, 1, 1324.93, 0)" xlink:href="#radial-gradient"/><radialGradient id="radial-gradient-81" cx="582.71" cy="101.62" r="0.86" gradientTransform="matrix(-1, 0, 0, 1, 1324.93, 0)" xlink:href="#radial-gradient"/><radialGradient id="radial-gradient-82" cx="582.15" cy="104.26" r="0.89" gradientTransform="matrix(-1, 0, 0, 1, 1324.93, 0)" xlink:href="#radial-gradient"/><radialGradient id="radial-gradient-83" cx="580.8" cy="109.77" r="0.52" gradientTransform="matrix(-1, 0, 0, 1, 1324.93, 0)" xlink:href="#radial-gradient"/><radialGradient id="radial-gradient-84" cx="582.43" cy="102.9" r="1.08" gradientTransform="matrix(-1, 0, 0, 1, 1324.93, 0)" xlink:href="#radial-gradient"/><radialGradient id="radial-gradient-85" cx="587.72" cy="111.19" r="7.67" gradientTransform="matrix(-1, 0, 0, 1, 1324.93, 0)" xlink:href="#radial-gradient"/><radialGradient id="radial-gradient-86" cx="581.32" cy="107.7" r="0.84" gradientTransform="matrix(-1, 0, 0, 1, 1324.93, 0)" xlink:href="#radial-gradient"/><radialGradient id="radial-gradient-87" cx="581.59" cy="106.7" r="0.76" gradientTransform="matrix(-1, 0, 0, 1, 1324.93, 0)" xlink:href="#radial-gradient"/><radialGradient id="radial-gradient-88" cx="581.87" cy="105.61" r="0.69" gradientTransform="matrix(-1, 0, 0, 1, 1324.93, 0)" xlink:href="#radial-gradient"/><radialGradient id="radial-gradient-89" cx="637.69" cy="174.9" r="0.55" gradientTransform="matrix(-1, 0, 0, 1, 1324.93, 0)" xlink:href="#radial-gradient"/><radialGradient id="radial-gradient-90" cx="636.78" cy="175.18" r="0.28" gradientTransform="matrix(-1, 0, 0, 1, 1324.93, 0)" xlink:href="#radial-gradient"/><radialGradient id="radial-gradient-91" cx="639.15" cy="174.55" r="0.81" gradientTransform="matrix(-1, 0, 0, 1, 1324.93, 0)" xlink:href="#radial-gradient"/><radialGradient id="radial-gradient-92" cx="636.44" cy="175.34" r="0.03" gradientTransform="matrix(-1, 0, 0, 1, 1324.93, 0)" xlink:href="#radial-gradient"/><radialGradient id="radial-gradient-93" cx="707.31" cy="200.7" r="1.39" gradientTransform="matrix(-1, 0, 0, 1, 1324.93, 0)" xlink:href="#radial-gradient"/><radialGradient id="radial-gradient-94" cx="666.36" cy="172.95" r="48.6" gradientTransform="matrix(-1, 0, 0, 1, 1324.93, 0)" xlink:href="#radial-gradient"/><radialGradient id="radial-gradient-95" cx="708.48" cy="202.76" r="1.1" gradientTransform="matrix(-1, 0, 0, 1, 1324.93, 0)" xlink:href="#radial-gradient"/><radialGradient id="radial-gradient-96" cx="641.09" cy="174.17" r="1.03" gradientTransform="matrix(-1, 0, 0, 1, 1324.93, 0)" xlink:href="#radial-gradient"/><radialGradient id="radial-gradient-97" cx="636.45" cy="175.25" r="0.05" gradientTransform="matrix(-1, 0, 0, 1, 1324.93, 0)" xlink:href="#radial-gradient"/><radialGradient id="radial-gradient-98" cx="579.6" cy="113.77" r="0.04" gradientTransform="matrix(-1, 0, 0, 1, 1324.93, 0)" xlink:href="#radial-gradient"/><radialGradient id="radial-gradient-99" cx="636.57" cy="174.95" r="0.17" gradientTransform="matrix(-1, 0, 0, 1, 1324.93, 0)" xlink:href="#radial-gradient"/><radialGradient id="radial-gradient-100" cx="636.88" cy="173.94" r="0.8" gradientTransform="matrix(-1, 0, 0, 1, 1324.93, 0)" xlink:href="#radial-gradient"/><radialGradient id="radial-gradient-101" cx="608.64" cy="110.66" r="62.52" gradientTransform="matrix(-1, 0, 0, 1, 1324.93, 0)" xlink:href="#radial-gradient"/><radialGradient id="radial-gradient-102" cx="646.33" cy="173.5" r="1.36" gradientTransform="matrix(-1, 0, 0, 1, 1324.93, 0)" xlink:href="#radial-gradient"/><radialGradient id="radial-gradient-103" cx="643.5" cy="173.81" r="1.21" gradientTransform="matrix(-1, 0, 0, 1, 1324.93, 0)" xlink:href="#radial-gradient"/><radialGradient id="radial-gradient-104" cx="652.15" cy="173.25" r="0.78" gradientTransform="matrix(-1, 0, 0, 1, 1324.93, 0)" xlink:href="#radial-gradient"/><radialGradient id="radial-gradient-105" cx="649.52" cy="173.3" r="1.49" gradientTransform="matrix(-1, 0, 0, 1, 1324.93, 0)" xlink:href="#radial-gradient"/><radialGradient id="radial-gradient-106" cx="584.5" cy="86.09" r="1.56" gradientTransform="matrix(-1, 0, 0, 1, 1324.93, 0)" xlink:href="#radial-gradient"/><radialGradient id="radial-gradient-107" cx="505.35" cy="0.24" r="0.46" gradientTransform="matrix(-1, 0, 0, 1, 1324.93, 0)" xlink:href="#radial-gradient"/><radialGradient id="radial-gradient-108" cx="506.5" cy="0.33" r="0.46" gradientTransform="matrix(-1, 0, 0, 1, 1324.93, 0)" xlink:href="#radial-gradient"/><radialGradient id="radial-gradient-109" cx="502.33" cy="0.01" r="2.16" gradientTransform="matrix(-1, 0, 0, 1, 1324.93, 0)" xlink:href="#radial-gradient"/><radialGradient id="radial-gradient-110" cx="499.5" cy="0" r="0.32" gradientTransform="matrix(-1, 0, 0, 1, 1324.93, 0)" xlink:href="#radial-gradient"/><radialGradient id="radial-gradient-111" cx="582.98" cy="100.2" r="0.89" gradientTransform="matrix(-1, 0, 0, 1, 1324.93, 0)" xlink:href="#radial-gradient"/><radialGradient id="radial-gradient-112" cx="514.21" cy="1.36" r="0.61" gradientTransform="matrix(-1, 0, 0, 1, 1324.93, 0)" xlink:href="#radial-gradient"/><radialGradient id="radial-gradient-113" cx="507.69" cy="0.45" r="0.5" gradientTransform="matrix(-1, 0, 0, 1, 1324.93, 0)" xlink:href="#radial-gradient"/><radialGradient id="radial-gradient-114" cx="510.89" cy="0.57" r="2.41" gradientTransform="matrix(-1, 0, 0, 1, 1324.93, 0)" xlink:href="#radial-gradient"/><radialGradient id="radial-gradient-115" cx="494.56" cy="0.15" r="0.08" gradientTransform="matrix(-1, 0, 0, 1, 1324.93, 0)" xlink:href="#radial-gradient"/><radialGradient id="radial-gradient-116" cx="515.65" cy="1.64" r="0.58" gradientTransform="matrix(-1, 0, 0, 1, 1324.93, 0)" xlink:href="#radial-gradient"/><radialGradient id="radial-gradient-117" cx="494.34" cy="0.17" r="0.06" gradientTransform="matrix(-1, 0, 0, 1, 1324.93, 0)" xlink:href="#radial-gradient"/><radialGradient id="radial-gradient-118" cx="494.84" cy="0.13" r="0.1" gradientTransform="matrix(-1, 0, 0, 1, 1324.93, 0)" xlink:href="#radial-gradient"/><radialGradient id="radial-gradient-119" cx="497.98" cy="0" r="0.27" gradientTransform="matrix(-1, 0, 0, 1, 1324.93, 0)" xlink:href="#radial-gradient"/><radialGradient id="radial-gradient-120" cx="494.2" cy="0.19" r="0.03" gradientTransform="matrix(-1, 0, 0, 1, 1324.93, 0)" xlink:href="#radial-gradient"/><radialGradient id="radial-gradient-121" cx="497.29" cy="0.01" r="0.27" gradientTransform="matrix(-1, 0, 0, 1, 1324.93, 0)" xlink:href="#radial-gradient"/><radialGradient id="radial-gradient-122" cx="495.2" cy="0.1" r="0.13" gradientTransform="matrix(-1, 0, 0, 1, 1324.93, 0)" xlink:href="#radial-gradient"/><radialGradient id="radial-gradient-123" cx="496.19" cy="0.03" r="0.69" gradientTransform="matrix(-1, 0, 0, 1, 1324.93, 0)" xlink:href="#radial-gradient"/><radialGradient id="radial-gradient-124" cx="498.7" cy="0" r="0.28" gradientTransform="matrix(-1, 0, 0, 1, 1324.93, 0)" xlink:href="#radial-gradient"/><radialGradient id="radial-gradient-125" cx="584.11" cy="91.78" r="1.43" gradientTransform="matrix(-1, 0, 0, 1, 1324.93, 0)" xlink:href="#radial-gradient"/><radialGradient id="radial-gradient-126" cx="583.93" cy="93.66" r="1.16" gradientTransform="matrix(-1, 0, 0, 1, 1324.93, 0)" xlink:href="#radial-gradient"/><radialGradient id="radial-gradient-127" cx="584.28" cy="90.12" r="1.13" gradientTransform="matrix(-1, 0, 0, 1, 1324.93, 0)" xlink:href="#radial-gradient"/><radialGradient id="radial-gradient-128" cx="584.4" cy="88.33" r="1.11" gradientTransform="matrix(-1, 0, 0, 1, 1324.93, 0)" xlink:href="#radial-gradient"/><radialGradient id="radial-gradient-129" cx="584.56" cy="84.32" r="1.52" gradientTransform="matrix(-1, 0, 0, 1, 1324.93, 0)" xlink:href="#radial-gradient"/><radialGradient id="radial-gradient-130" cx="517.09" cy="1.93" r="0.59" gradientTransform="matrix(-1, 0, 0, 1, 1324.93, 0)" xlink:href="#radial-gradient"/><radialGradient id="radial-gradient-131" cx="583.48" cy="96.98" r="1.17" gradientTransform="matrix(-1, 0, 0, 1, 1324.93, 0)" xlink:href="#radial-gradient"/><radialGradient id="radial-gradient-132" cx="583.72" cy="95.44" r="0.97" gradientTransform="matrix(-1, 0, 0, 1, 1324.93, 0)" xlink:href="#radial-gradient"/><radialGradient id="radial-gradient-133" cx="583.25" cy="98.43" r="1.25" gradientTransform="matrix(-1, 0, 0, 1, 1324.93, 0)" xlink:href="#radial-gradient"/><radialGradient id="radial-gradient-134" cx="584.57" cy="80.41" r="1.31" gradientTransform="matrix(-1, 0, 0, 1, 1324.93, 0)" xlink:href="#radial-gradient"/><radialGradient id="radial-gradient-135" cx="518.57" cy="2.25" r="0.64" gradientTransform="matrix(-1, 0, 0, 1, 1324.93, 0)" xlink:href="#radial-gradient"/><radialGradient id="radial-gradient-136" cx="583.98" cy="71.66" r="1.74" gradientTransform="matrix(-1, 0, 0, 1, 1324.93, 0)" xlink:href="#radial-gradient"/><radialGradient id="radial-gradient-137" cx="551.21" cy="1.8" r="94.22" gradientTransform="matrix(-1, 0, 0, 1, 1324.93, 0)" xlink:href="#radial-gradient"/><radialGradient id="radial-gradient-138" cx="584.5" cy="78.13" r="1.67" gradientTransform="matrix(-1, 0, 0, 1, 1324.93, 0)" xlink:href="#radial-gradient"/><radialGradient id="radial-gradient-139" cx="584.22" cy="74.19" r="1.25" gradientTransform="matrix(-1, 0, 0, 1, 1324.93, 0)" xlink:href="#radial-gradient"/><radialGradient id="radial-gradient-140" cx="584.38" cy="76.22" r="1.33" gradientTransform="matrix(-1, 0, 0, 1, 1324.93, 0)" xlink:href="#radial-gradient"/></defs><g class="cls-1"><g id="Layer_2" data-name="Layer 2"><g id="Capa_1" data-name="Capa 1"><path class="cls-2" d="M49.26.2S89.92-4.49,121.2,31.48s13.55,82.34,13.55,82.34,34.93-11.19,52.91,12.27,3.91,49.26,3.91,49.26,49.26-14.07,73.5,30.5S37.53,283.26,37.53,283.26L0,220.7Z"/><path class="cls-3" d="M135.37,112c-.05.13-.09.26-.13.38Z"/><path class="cls-4" d="M135.19,112.55c0,.12-.07.24-.11.34C135.12,112.79,135.15,112.67,135.19,112.55Z"/><path class="cls-5" d="M135.6,111.29c-.07.2-.12.39-.18.56C135.48,111.68,135.53,111.49,135.6,111.29Z"/><path class="cls-6" d="M139.75,83.8v0Z"/><path class="cls-7" d="M134.82,113.64l0,.11Z"/><path class="cls-8" d="M135.82,110.55q-.1.36-.21.69Q135.72,110.91,135.82,110.55Z"/><path class="cls-9" d="M135.05,113c0,.12-.08.24-.12.34C135,113.22,135,113.11,135.05,113Z"/><path class="cls-10" d="M134.91,113.38c0,.07,0,.14-.07.19Z"/><path class="cls-11" d="M136.3,108.86q-.09.35-.18.66Q136.21,109.21,136.3,108.86Z"/><path class="cls-12" d="M138,101.63c-.06.32-.12.64-.19,1C137.85,102.27,137.91,102,138,101.63Z"/><path class="cls-13" d="M137.43,104.27c-.08.34-.15.68-.23,1C137.28,105,137.35,104.61,137.43,104.27Z"/><path class="cls-14" d="M136.05,109.77l-.17.58Z"/><path class="cls-15" d="M137.72,102.91c-.09.41-.17.82-.26,1.21C137.55,103.73,137.63,103.32,137.72,102.91Z"/><path class="cls-16" d="M134.75,113.82a68.72,68.72,0,0,1,16.47-2.61A68.72,68.72,0,0,0,134.75,113.82Z"/><path class="cls-17" d="M136.61,107.71l-.25.94Z"/><path class="cls-18" d="M136.86,106.71c-.07.29-.14.58-.21.85C136.72,107.29,136.79,107,136.86,106.71Z"/><path class="cls-19" d="M137.12,105.62l-.18.77Z"/><path class="cls-20" d="M193.43,174.9l-1.14.26Z"/><path class="cls-21" d="M192.23,175.18l-.56.15Z"/><path class="cls-22" d="M195.16,174.55l-1.68.34Z"/><path class="cls-23" d="M191.63,175.34h0Z"/><path class="cls-24" d="M262,200.71l1,1.51Z"/><path class="cls-25" d="M191.09,205c18.06,11.71,46.17,4.34,69.75-5.94.36.51.72,1,1.07,1.57-15.36-23.34-38.25-27.57-53.71-27.33C188.64,180.59,170.83,191.82,191.09,205Z"/><path class="cls-26" d="M263.29,202.77,264,204C263.77,203.55,263.53,203.16,263.29,202.77Z"/><path class="cls-27" d="M197.36,174.17c-.81.13-1.54.25-2.19.38C195.82,174.42,196.55,174.3,197.36,174.17Z"/><path class="cls-28" d="M191.62,175.25l0,.06Z"/><path class="cls-29" d="M134.75,113.82l0,0Z"/><path class="cls-30" d="M191.78,175l-.1.19Z"/><path class="cls-31" d="M192.25,174c-.16.36-.3.65-.41.88C192,174.61,192.09,174.31,192.25,174Z"/><path class="cls-32" d="M147.61,152.1c27,14.57,41.5,8.46,49.16-.8a52.34,52.34,0,0,1-4.5,22.61c2.61-5.72,10.87-27.63-4.61-47.82-9.9-12.91-24.92-15.32-36.44-14.88C132.92,122.1,119.92,137.19,147.61,152.1Z"/><path class="cls-33" d="M203,173.5c-1.06.09-2.07.19-3,.31C200.94,173.69,202,173.59,203,173.5Z"/><path class="cls-34" d="M200,173.81c-.94.11-1.82.23-2.62.36C198.17,174,199.05,173.92,200,173.81Z"/><path class="cls-35" d="M208.2,173.25l-1.76.05Z"/><path class="cls-36" d="M206.36,173.3c-1.16,0-2.27.12-3.32.2C204.09,173.42,205.2,173.35,206.36,173.3Z"/><path class="cls-37" d="M139.7,86.11c0,.59,0,1.18-.07,1.76C139.66,87.29,139.68,86.7,139.7,86.11Z"/><path class="cls-38" d="M60,.24l1,.08Z"/><path class="cls-39" d="M61.15.34l1,.09Z"/><path class="cls-40" d="M55.1,0c1.4,0,3,.08,4.84.22C58.12.09,56.5,0,55.1,0Z"/><path class="cls-41" d="M54.3,0h0Z"/><path class="cls-42" d="M138.23,100.21l-.18,1Z"/><path class="cls-43" d="M68.74,1.36,70,1.61Z"/><path class="cls-44" d="M62.31.45l1.11.12Z"/><path class="cls-45" d="M63.48.58c1.63.19,3.37.45,5.21.77C66.85,1,65.11.77,63.48.58Z"/><path class="cls-46" d="M49.64.16h0Z"/><path class="cls-47" d="M70.22,1.64l1.2.25Z"/><path class="cls-48" d="M49.43.18h0Z"/><path class="cls-49" d="M49.89.14h0Z"/><path class="cls-50" d="M52.85,0h0Z"/><path class="cls-51" d="M49.33.19h0Z"/><path class="cls-52" d="M52.15,0l.6,0Z"/><path class="cls-53" d="M50.21.12l.3,0Z"/><path class="cls-54" d="M50.59.1c.42,0,.94,0,1.54-.07C51.53.05,51,.07,50.59.1Z"/><path class="cls-55" d="M54.19,0h0Z"/><path class="cls-56" d="M139.35,91.79c0,.55-.1,1.09-.16,1.62C139.25,92.88,139.3,92.34,139.35,91.79Z"/><path class="cls-57" d="M139.16,93.67c0,.44-.09.88-.15,1.31C139.07,94.55,139.12,94.11,139.16,93.67Z"/><path class="cls-58" d="M139.49,90.13c0,.43-.07.86-.1,1.28C139.42,91,139.46,90.56,139.49,90.13Z"/><path class="cls-59" d="M139.6,88.34c0,.43,0,.84-.07,1.26C139.55,89.18,139.58,88.77,139.6,88.34Z"/><path class="cls-60" d="M139.74,84.34c0,.58,0,1.15,0,1.72C139.72,85.49,139.73,84.92,139.74,84.34Z"/><path class="cls-61" d="M71.65,1.94l1.22.27Z"/><path class="cls-62" d="M138.75,97c-.07.44-.13.88-.2,1.32C138.62,97.87,138.68,97.43,138.75,97Z"/><path class="cls-63" d="M139,95.45c0,.37-.09.74-.14,1.1C138.86,96.19,138.91,95.82,139,95.45Z"/><path class="cls-64" d="M138.53,98.44q-.12.72-.24,1.41Q138.41,99.16,138.53,98.44Z"/><path class="cls-65" d="M139.71,80.42c0,.5,0,1,0,1.49C139.74,81.42,139.73,80.92,139.71,80.42Z"/><path class="cls-66" d="M73.08,2.26l1.31.31Z"/><path class="cls-67" d="M139,71.68c.09.65.16,1.31.23,2C139.19,73,139.12,72.33,139,71.68Z"/><path class="cls-68" d="M79.14,3.88c.07,41,4.66,105.09,33,100.06,17.76-3.15,24.72-17.22,26.88-32.27A74.91,74.91,0,0,0,121.2,31.48,90,90,0,0,0,74.53,2.6C76,3,77.57,3.4,79.14,3.88Z"/><path class="cls-69" d="M139.62,78.15c0,.63.06,1.26.08,1.89C139.68,79.41,139.65,78.78,139.62,78.15Z"/><path class="cls-70" d="M139.32,74.21c0,.47.09.94.13,1.41C139.41,75.15,139.36,74.68,139.32,74.21Z"/><path class="cls-71" d="M139.49,76.23c0,.51.08,1,.1,1.51C139.57,77.24,139.53,76.74,139.49,76.23Z"/><path class="cls-72" d="M830.83.2s-40.66-4.69-71.94,31.28-13.55,82.34-13.55,82.34-34.93-11.19-52.91,12.27-3.91,49.26-3.91,49.26-49.27-14.07-73.5,30.5,227.53,77.41,227.53,77.41l37.54-62.56Z"/><path class="cls-73" d="M744.72,112l.12.38C744.8,112.28,744.76,112.16,744.72,112Z"/><path class="cls-74" d="M744.89,112.55c0,.12.08.24.12.34C745,112.79,744.93,112.67,744.89,112.55Z"/><path class="cls-75" d="M744.49,111.29c.06.2.12.39.18.56C744.61,111.68,744.55,111.49,744.49,111.29Z"/><path class="cls-76" d="M740.34,83.8v0Z"/><path class="cls-77" d="M745.27,113.64l0,.11Z"/><path class="cls-78" d="M744.27,110.55c.07.24.14.47.2.69C744.41,111,744.34,110.79,744.27,110.55Z"/><path class="cls-79" d="M745,113l.11.34Z"/><path class="cls-80" d="M745.18,113.38a2,2,0,0,0,.07.19A1.31,1.31,0,0,1,745.18,113.38Z"/><path class="cls-81" d="M743.79,108.86q.09.35.18.66Q743.88,109.21,743.79,108.86Z"/><path class="cls-82" d="M742.12,101.63c.06.32.12.64.19,1C742.24,102.27,742.18,102,742.12,101.63Z"/><path class="cls-83" d="M742.66,104.27c.07.34.15.68.22,1C742.81,105,742.73,104.61,742.66,104.27Z"/><path class="cls-84" d="M744,109.77c.06.2.11.4.17.58C744.15,110.17,744.1,110,744,109.77Z"/><path class="cls-85" d="M742.37,102.91c.08.41.17.82.26,1.21C742.54,103.73,742.45,103.32,742.37,102.91Z"/><path class="cls-86" d="M745.34,113.82a68.74,68.74,0,0,0-16.48-2.61A68.74,68.74,0,0,1,745.34,113.82Z"/><path class="cls-87" d="M743.48,107.71c.08.33.17.64.25.94C743.65,108.35,743.56,108,743.48,107.71Z"/><path class="cls-88" d="M743.23,106.71c.07.29.14.58.21.85C743.37,107.29,743.3,107,743.23,106.71Z"/><path class="cls-89" d="M743,105.62c.07.26.13.52.19.77C743.09,106.14,743,105.88,743,105.62Z"/><path class="cls-90" d="M686.66,174.9l1.13.26Z"/><path class="cls-91" d="M687.85,175.18l.57.15Z"/><path class="cls-92" d="M684.93,174.55l1.68.34Z"/><path class="cls-93" d="M688.46,175.34h0Z"/><path class="cls-94" d="M618.09,200.71l-1,1.51Z"/><path class="cls-95" d="M689,205c-18.07,11.71-46.17,4.34-69.76-5.94-.36.51-.71,1-1.07,1.57,15.36-23.34,38.26-27.57,53.72-27.33C691.44,180.59,709.25,191.82,689,205Z"/><path class="cls-96" d="M616.79,202.77c-.24.39-.47.79-.71,1.19C616.31,203.55,616.56,203.16,616.79,202.77Z"/><path class="cls-97" d="M682.73,174.17c.8.13,1.53.25,2.19.38C684.26,174.42,683.53,174.3,682.73,174.17Z"/><path class="cls-98" d="M688.46,175.25l0,.06Z"/><path class="cls-99" d="M745.34,113.82l0,0Z"/><path class="cls-100" d="M688.31,175l.1.19Z"/><path class="cls-101" d="M687.83,174l.42.88C688.14,174.61,688,174.31,687.83,174Z"/><path class="cls-102" d="M732.48,152.1c-27,14.57-41.51,8.46-49.17-.8a52.34,52.34,0,0,0,4.5,22.61c-2.6-5.72-10.86-27.63,4.62-47.82,9.89-12.91,24.92-15.32,36.43-14.88C747.17,122.1,760.17,137.19,732.48,152.1Z"/><path class="cls-103" d="M677.08,173.5c1.06.09,2.06.19,3,.31C679.14,173.69,678.14,173.59,677.08,173.5Z"/><path class="cls-104" d="M680.1,173.81c.94.11,1.82.23,2.62.36C681.92,174,681,173.92,680.1,173.81Z"/><path class="cls-105" d="M671.89,173.25l1.75.05Z"/><path class="cls-106" d="M673.72,173.3c1.16,0,2.27.12,3.33.2C676,173.42,674.88,173.35,673.72,173.3Z"/><path class="cls-107" d="M740.38,86.11c0,.59,0,1.18.08,1.76C740.43,87.29,740.4,86.7,740.38,86.11Z"/><path class="cls-108" d="M820.08.24l-1,.08Z"/><path class="cls-109" d="M818.93.34l-1,.09Z"/><path class="cls-110" d="M825,0c-1.4,0-3,.08-4.84.22C822,.09,823.59,0,825,0Z"/><path class="cls-111" d="M825.78,0h0Z"/><path class="cls-112" d="M741.86,100.21l.18,1Z"/><path class="cls-113" d="M811.35,1.36l-1.29.25Z"/><path class="cls-114" d="M817.78.45l-1.11.12Z"/><path class="cls-115" d="M816.61.58c-1.64.19-3.38.45-5.21.77C813.23,1,815,.77,816.61.58Z"/><path class="cls-116" d="M830.45.16h0Z"/><path class="cls-117" d="M809.87,1.64l-1.2.25Z"/><path class="cls-118" d="M830.66.18h0Z"/><path class="cls-119" d="M830.2.14h0Z"/><path class="cls-120" d="M827.24,0h0Z"/><path class="cls-121" d="M830.76.19h0Z"/><path class="cls-122" d="M827.93,0l-.6,0Z"/><path class="cls-123" d="M829.87.12l-.29,0Z"/><path class="cls-124" d="M829.5.1c-.42,0-.94,0-1.55-.07C828.56.05,829.08.07,829.5.1Z"/><path class="cls-125" d="M825.9,0h0Z"/><path class="cls-126" d="M740.73,91.79c0,.55.11,1.09.16,1.62C740.84,92.88,740.78,92.34,740.73,91.79Z"/><path class="cls-127" d="M740.92,93.67l.15,1.31Z"/><path class="cls-128" d="M740.6,90.13c0,.43.06.86.1,1.28C740.66,91,740.63,90.56,740.6,90.13Z"/><path class="cls-129" d="M740.48,88.34c0,.43,0,.84.08,1.26C740.53,89.18,740.51,88.77,740.48,88.34Z"/><path class="cls-130" d="M740.34,84.34c0,.58,0,1.15,0,1.72C740.36,85.49,740.35,84.92,740.34,84.34Z"/><path class="cls-131" d="M808.44,1.94c-.41.08-.81.17-1.22.27C807.63,2.11,808,2,808.44,1.94Z"/><path class="cls-132" d="M741.34,97c.07.44.13.88.2,1.32C741.47,97.87,741.41,97.43,741.34,97Z"/><path class="cls-133" d="M741.13,95.45l.15,1.1Z"/><path class="cls-134" d="M741.56,98.44c.07.48.15,1,.23,1.41C741.71,99.39,741.63,98.92,741.56,98.44Z"/><path class="cls-135" d="M740.37,80.42l0,1.49Z"/><path class="cls-136" d="M807,2.26l-1.31.31Z"/><path class="cls-137" d="M741.05,71.68c-.08.65-.15,1.31-.22,2C740.9,73,741,72.33,741.05,71.68Z"/><path class="cls-138" d="M801,3.88c-.07,41-4.66,105.09-33,100.06-17.75-3.15-24.71-17.22-26.87-32.27a74.76,74.76,0,0,1,17.83-40.19A90,90,0,0,1,805.55,2.6C804.06,3,802.52,3.4,801,3.88Z"/><path class="cls-139" d="M740.47,78.15c0,.63-.06,1.26-.09,1.89C740.41,79.41,740.43,78.78,740.47,78.15Z"/><path class="cls-140" d="M740.77,74.21c0,.47-.09.94-.13,1.41C740.68,75.15,740.72,74.68,740.77,74.21Z"/><path class="cls-141" d="M740.59,76.23c0,.51-.07,1-.1,1.51C740.52,77.24,740.55,76.74,740.59,76.23Z"/></g></g></g></svg>